<svg width="37" height="32" viewBox="0 0 37 32" fill="none" xmlns="http://www.w3.org/2000/svg">
<g clip-path="url(#clip0_171_479)">
<path d="M36.1837 15.2771L27.9214 0.903111C27.6213 0.383431 27.067 0 26.4668 0H9.94212C9.34194 0 8.78727 0.383431 8.48718 0.903111L0.225067 15.2454C-0.0750222 15.7652 -0.0750222 16.4213 0.225067 16.9411L8.48718 31.1973C8.78727 31.717 9.34194 31.9827 9.94212 31.9827H26.4666C27.0668 31.9827 27.6213 31.7249 27.9213 31.2051L36.1835 16.9257C36.4839 16.4062 36.4839 15.7968 36.1835 15.2771H36.1837ZM29.3421 22.1891C29.3421 22.4003 29.2149 22.5958 29.0318 22.7017L18.5074 28.7735C18.4168 28.8255 18.3142 28.8528 18.2098 28.8528C18.1053 28.8528 18.0027 28.8255 17.9121 28.7735L7.3797 22.7017C7.19666 22.5958 7.06852 22.4004 7.06852 22.1889V10.0449C7.06852 9.83339 7.19481 9.63812 7.37799 9.5323L17.9017 3.46027C17.9923 3.40826 18.0949 3.3809 18.1993 3.3809C18.3038 3.3809 18.4064 3.40826 18.4969 3.46027L29.0299 9.5323C29.2132 9.63812 29.3421 9.83339 29.3421 10.0449V22.1891Z" fill="#4B32C3"/>
<path d="M11.4455 18.6C12.103 18.6 12.6919 18.42 13.212 18.06C13.7321 17.7 14.0978 17.23 14.3091 16.65L14.7864 15.27C15.1258 14.31 15.0409 13.4252 14.5318 12.6156C14.0227 11.806 13.2909 11.4008 12.3364 11.4H7.85L8.45455 16.11C8.56061 16.81 8.89491 17.4 9.45745 17.88C10.02 18.36 10.6827 18.6 11.4455 18.6ZM24.5545 18.6C25.3182 18.6 25.9813 18.36 26.5438 17.88C27.1064 17.4 27.4402 16.81 27.5455 16.11L28.15 11.4H23.6955C22.7409 11.4 22.0091 11.81 21.5 12.63C20.9909 13.45 20.9061 14.34 21.2455 15.3L21.6909 16.65C21.903 17.23 22.2692 17.7 22.7893 18.06C23.3094 18.42 23.8978 18.6 24.5545 18.6ZM11.4455 21C10.0455 21 8.82067 20.5648 7.77109 19.6944C6.72152 18.824 6.11145 17.7292 5.94091 16.41L5.27273 11.4H4V9H12.3364C13.2697 9 14.1237 9.2152 14.8984 9.6456C15.673 10.076 16.2827 10.6608 16.7273 11.4H19.3045C19.75 10.66 20.3601 10.0748 21.1347 9.6444C21.9094 9.214 22.763 8.9992 23.6955 9H32V11.4H30.7273L30.0591 16.41C29.8894 17.73 29.2798 18.8252 28.2302 19.6956C27.1806 20.566 25.9554 21.0008 24.5545 21C23.3455 21 22.2585 20.6752 21.2938 20.0256C20.3291 19.376 19.6554 18.5108 19.2727 17.43L18.7955 16.08C18.753 15.94 18.7106 15.7948 18.6682 15.6444C18.6258 15.494 18.5833 15.2792 18.5409 15H17.4591C17.4167 15.24 17.3742 15.4352 17.3318 15.5856C17.2894 15.736 17.247 15.8808 17.2045 16.02L16.7273 17.4C16.3455 18.48 15.6722 19.35 14.7075 20.01C13.7427 20.67 12.6554 21 11.4455 21Z" fill="#8080F2"/>
</g>
<defs>
<clipPath id="clip0_171_479">
<rect width="36.41" height="32" fill="white"/>
</clipPath>
</defs>
</svg>
